<?xml version="1.0" encoding="UTF-8"?><svg xmlns="http://www.w3.org/2000/svg" xmlns:xlink="http://www.w3.org/1999/xlink" contentScriptType="text/ecmascript" width="810pt" zoomAndPan="magnify" contentStyleType="text/css" viewBox="0 0 810 809.999993" height="809.999993pt" preserveAspectRatio="xMidYMid meet" version="1.2"><defs><clipPath xml:id="clip1" id="clip1"><path d="M 119.347656 448 L 181 448 L 181 501 L 119.347656 501 Z M 119.347656 448 "/></clipPath><clipPath xml:id="clip2" id="clip2"><path d="M 119.347656 292 L 181 292 L 181 345 L 119.347656 345 Z M 119.347656 292 "/></clipPath><clipPath xml:id="clip3" id="clip3"><path d="M 383.085938 658 L 426 658 L 426 711.269531 L 383.085938 711.269531 Z M 383.085938 658 "/></clipPath><clipPath xml:id="clip4" id="clip4"><path d="M 423 658 L 465 658 L 465 711.269531 L 423 711.269531 Z M 423 658 "/></clipPath><clipPath xml:id="clip5" id="clip5"><path d="M 667 448 L 729.097656 448 L 729.097656 501 L 667 501 Z M 667 448 "/></clipPath><clipPath xml:id="clip6" id="clip6"><path d="M 667 292 L 729.097656 292 L 729.097656 345 L 667 345 Z M 667 292 "/></clipPath></defs><g xml:id="surface1" id="surface1"><path style=" stroke:none;fill-rule:nonzero;fill:rgb(91.369629%,76.078796%,38.038635%);fill-opacity:1;" d="M 145.824219 416.65625 L 133.191406 455.488281 L 166.726562 448.535156 L 156.136719 415.945312 Z M 131.3125 458.433594 C 130.953125 458.433594 130.609375 458.289062 130.367188 458.015625 C 130.0625 457.679688 129.964844 457.207031 130.101562 456.777344 L 143.675781 415.058594 C 143.839844 414.570312 144.28125 414.222656 144.796875 414.1875 L 156.949219 413.351562 C 157.539062 413.316406 158.0625 413.675781 158.242188 414.222656 L 169.574219 449.09375 C 169.683594 449.4375 169.644531 449.808594 169.464844 450.121094 C 169.28125 450.433594 168.980469 450.652344 168.628906 450.726562 L 131.566406 458.410156 C 131.484375 458.429688 131.394531 458.433594 131.3125 458.433594 "/><g clip-rule="nonzero" clip-path="url(#clip1)"><path style=" stroke:none;fill-rule:nonzero;fill:rgb(91.369629%,76.078796%,38.038635%);fill-opacity:1;" d="M 122.230469 489.203125 L 134.304688 497.96875 L 177.78125 482.539062 L 167.515625 450.957031 L 132.292969 458.261719 Z M 134.097656 500.648438 C 133.835938 500.648438 133.574219 500.570312 133.355469 500.414062 L 119.992188 490.707031 C 119.554688 490.386719 119.363281 489.816406 119.535156 489.292969 L 130.101562 456.777344 C 130.246094 456.347656 130.609375 456.027344 131.054688 455.933594 L 168.113281 448.246094 C 168.742188 448.117188 169.371094 448.480469 169.574219 449.09375 L 180.574219 482.929688 C 180.789062 483.582031 180.441406 484.277344 179.792969 484.511719 L 134.523438 500.582031 C 134.386719 500.628906 134.242188 500.648438 134.097656 500.648438 "/></g><path style=" stroke:none;fill-rule:nonzero;fill:rgb(91.369629%,76.078796%,38.038635%);fill-opacity:1;" d="M 202.609375 550.671875 L 202.734375 551.042969 L 202.933594 550.90625 Z M 202.054688 554.339844 C 201.921875 554.339844 201.789062 554.320312 201.65625 554.273438 C 201.273438 554.144531 200.972656 553.84375 200.851562 553.457031 L 199 547.75 C 198.828125 547.230469 199.015625 546.65625 199.460938 546.335938 C 199.90625 546.015625 200.507812 546.015625 200.953125 546.335938 L 205.851562 549.898438 C 206.183594 550.132812 206.382812 550.519531 206.378906 550.925781 C 206.371094 551.335938 206.175781 551.71875 205.835938 551.953125 L 202.78125 554.105469 C 202.570312 554.257812 202.3125 554.339844 202.054688 554.339844 "/><path style=" stroke:none;fill-rule:nonzero;fill:rgb(91.369629%,76.078796%,38.038635%);fill-opacity:1;" d="M 136.792969 499.773438 L 172.167969 525.4375 L 188.921875 516.773438 L 178.566406 484.945312 Z M 172.054688 528.1875 C 171.796875 528.1875 171.535156 528.109375 171.3125 527.953125 L 133.355469 500.414062 C 132.972656 500.136719 132.777344 499.671875 132.84375 499.207031 C 132.910156 498.742188 133.230469 498.351562 133.675781 498.191406 L 178.945312 482.121094 C 179.269531 482.007812 179.625 482.027344 179.929688 482.179688 C 180.238281 482.328125 180.46875 482.601562 180.574219 482.921875 L 191.664062 517.011719 C 191.855469 517.597656 191.59375 518.242188 191.039062 518.523438 L 172.640625 528.050781 C 172.457031 528.144531 172.257812 528.1875 172.054688 528.1875 "/><path style=" stroke:none;fill-rule:nonzero;fill:rgb(91.369629%,76.078796%,38.038635%);fill-opacity:1;" d="M 174.460938 527.105469 L 197.792969 544.046875 L 189.714844 519.210938 Z M 200.203125 548.625 C 199.941406 548.625 199.683594 548.546875 199.460938 548.382812 L 171.3125 527.953125 C 170.957031 527.6875 170.761719 527.269531 170.792969 526.828125 C 170.828125 526.394531 171.085938 526.003906 171.476562 525.800781 L 189.875 516.277344 C 190.203125 516.105469 190.59375 516.085938 190.941406 516.234375 C 191.28125 516.371094 191.550781 516.660156 191.664062 517.011719 L 201.410156 546.96875 C 201.582031 547.488281 201.398438 548.0625 200.953125 548.382812 C 200.730469 548.546875 200.464844 548.625 200.203125 548.625 "/><path style=" stroke:none;fill-rule:nonzero;fill:rgb(91.369629%,76.078796%,38.038635%);fill-opacity:1;" d="M 174.460938 265.605469 L 189.714844 273.5 L 197.792969 248.671875 Z M 190.460938 276.578125 C 190.257812 276.578125 190.058594 276.527344 189.875 276.433594 L 171.476562 266.910156 C 171.085938 266.710938 170.828125 266.324219 170.792969 265.882812 C 170.761719 265.449219 170.957031 265.023438 171.3125 264.765625 L 199.460938 244.328125 C 199.90625 244.007812 200.507812 244.007812 200.953125 244.328125 C 201.398438 244.648438 201.582031 245.222656 201.410156 245.742188 L 191.664062 275.699219 C 191.550781 276.058594 191.28125 276.339844 190.941406 276.484375 C 190.789062 276.546875 190.625 276.578125 190.460938 276.578125 "/><path style=" stroke:none;fill-rule:nonzero;fill:rgb(91.369629%,76.078796%,38.038635%);fill-opacity:1;" d="M 151.09375 400.453125 L 146.667969 414.058594 L 155.332031 413.464844 Z M 144.886719 416.714844 C 144.496094 416.714844 144.128906 416.539062 143.886719 416.230469 C 143.628906 415.898438 143.546875 415.460938 143.675781 415.058594 L 149.890625 395.96875 C 150.058594 395.445312 150.542969 395.09375 151.09375 395.09375 C 151.644531 395.09375 152.128906 395.445312 152.300781 395.96875 L 158.242188 414.222656 C 158.367188 414.59375 158.308594 415 158.089844 415.320312 C 157.871094 415.648438 157.515625 415.851562 157.128906 415.878906 L 144.96875 416.714844 C 144.945312 416.714844 144.914062 416.714844 144.886719 416.714844 "/><path style=" stroke:none;fill-rule:nonzero;fill:rgb(91.369629%,76.078796%,38.038635%);fill-opacity:1;" d="M 136.792969 292.9375 L 178.566406 307.765625 L 188.921875 275.9375 L 172.167969 267.273438 Z M 179.371094 310.664062 C 179.226562 310.664062 179.085938 310.640625 178.945312 310.589844 L 133.675781 294.519531 C 133.230469 294.363281 132.910156 293.976562 132.84375 293.511719 C 132.777344 293.042969 132.972656 292.582031 133.355469 292.304688 L 171.3125 264.765625 C 171.699219 264.484375 172.214844 264.445312 172.640625 264.667969 L 191.039062 274.1875 C 191.59375 274.46875 191.855469 275.113281 191.664062 275.699219 L 180.574219 309.789062 C 180.46875 310.117188 180.238281 310.382812 179.929688 310.53125 C 179.753906 310.621094 179.558594 310.664062 179.371094 310.664062 "/><g clip-rule="nonzero" clip-path="url(#clip2)"><path style=" stroke:none;fill-rule:nonzero;fill:rgb(91.369629%,76.078796%,38.038635%);fill-opacity:1;" d="M 132.292969 334.453125 L 167.515625 341.757812 L 177.78125 310.175781 L 134.304688 294.742188 L 122.230469 303.511719 Z M 168.371094 344.496094 C 168.28125 344.496094 168.199219 344.484375 168.113281 344.46875 L 131.054688 336.785156 C 130.609375 336.691406 130.246094 336.363281 130.101562 335.933594 L 119.535156 303.417969 C 119.363281 302.898438 119.554688 302.324219 119.992188 302.003906 L 133.355469 292.304688 C 133.691406 292.058594 134.128906 291.992188 134.523438 292.136719 L 179.792969 308.203125 C 180.441406 308.433594 180.789062 309.136719 180.574219 309.789062 L 169.574219 343.621094 C 169.402344 344.148438 168.910156 344.496094 168.371094 344.496094 "/></g><path style=" stroke:none;fill-rule:nonzero;fill:rgb(91.369629%,76.078796%,38.038635%);fill-opacity:1;" d="M 146.667969 378.65625 L 151.09375 392.261719 L 155.332031 379.25 Z M 151.09375 397.625 C 150.542969 397.625 150.058594 397.269531 149.890625 396.75 L 143.675781 377.652344 C 143.546875 377.253906 143.628906 376.816406 143.886719 376.484375 C 144.144531 376.152344 144.554688 375.972656 144.96875 376 L 157.128906 376.835938 C 157.515625 376.863281 157.871094 377.070312 158.089844 377.390625 C 158.308594 377.710938 158.367188 378.117188 158.242188 378.488281 L 152.300781 396.75 C 152.128906 397.269531 151.644531 397.625 151.09375 397.625 "/><path style=" stroke:none;fill-rule:nonzero;fill:rgb(91.369629%,76.078796%,38.038635%);fill-opacity:1;" d="M 145.824219 376.058594 L 156.136719 376.765625 L 166.726562 344.183594 L 133.191406 337.222656 Z M 157.039062 379.363281 C 157.007812 379.363281 156.980469 379.363281 156.949219 379.359375 L 144.796875 378.527344 C 144.28125 378.488281 143.839844 378.148438 143.675781 377.652344 L 130.101562 335.933594 C 129.964844 335.503906 130.0625 335.03125 130.367188 334.695312 C 130.667969 334.359375 131.128906 334.210938 131.566406 334.300781 L 168.628906 341.988281 C 168.980469 342.0625 169.28125 342.285156 169.464844 342.589844 C 169.644531 342.902344 169.683594 343.277344 169.574219 343.621094 L 158.242188 378.488281 C 158.074219 379.011719 157.582031 379.363281 157.039062 379.363281 "/><path style=" stroke:none;fill-rule:nonzero;fill:rgb(91.369629%,76.078796%,38.038635%);fill-opacity:1;" d="M 202.734375 241.667969 L 202.609375 242.042969 L 202.933594 241.8125 Z M 200.203125 246.617188 C 199.941406 246.617188 199.683594 246.539062 199.460938 246.375 C 199.015625 246.054688 198.828125 245.484375 199 244.960938 L 200.851562 239.253906 C 200.972656 238.867188 201.273438 238.570312 201.65625 238.441406 C 202.035156 238.3125 202.457031 238.375 202.789062 238.605469 L 205.84375 240.761719 C 206.175781 240.996094 206.371094 241.375 206.378906 241.785156 C 206.378906 242.195312 206.183594 242.582031 205.851562 242.820312 L 200.953125 246.375 C 200.730469 246.539062 200.464844 246.617188 200.203125 246.617188 "/><path style=" stroke:none;fill-rule:nonzero;fill:rgb(91.369629%,76.078796%,38.038635%);fill-opacity:1;" d="M 203.550781 553.566406 L 215.285156 589.621094 L 233.21875 572.894531 L 205.101562 552.476562 Z M 214.691406 593.167969 C 214.585938 593.167969 214.476562 593.160156 214.371094 593.128906 C 213.953125 593.019531 213.621094 592.710938 213.488281 592.296875 L 200.851562 553.460938 C 200.679688 552.933594 200.871094 552.355469 201.328125 552.035156 L 204.378906 549.886719 C 204.824219 549.570312 205.417969 549.574219 205.851562 549.898438 L 235.953125 571.75 C 236.257812 571.96875 236.453125 572.316406 236.472656 572.691406 C 236.496094 573.074219 236.347656 573.441406 236.078125 573.695312 L 215.554688 592.832031 C 215.316406 593.050781 215.007812 593.167969 214.691406 593.167969 "/><path style=" stroke:none;fill-rule:nonzero;fill:rgb(91.369629%,76.078796%,38.038635%);fill-opacity:1;" d="M 203.550781 239.144531 L 205.101562 240.238281 L 233.21875 219.820312 L 215.285156 203.089844 Z M 205.109375 243.0625 C 204.851562 243.0625 204.59375 242.984375 204.378906 242.832031 L 201.324219 240.679688 C 200.871094 240.355469 200.679688 239.777344 200.851562 239.253906 L 213.488281 200.417969 C 213.621094 200.007812 213.953125 199.691406 214.371094 199.582031 C 214.792969 199.472656 215.238281 199.585938 215.554688 199.882812 L 236.078125 219.015625 C 236.347656 219.273438 236.496094 219.644531 236.472656 220.019531 C 236.453125 220.394531 236.257812 220.742188 235.953125 220.964844 L 205.851562 242.820312 C 205.628906 242.976562 205.371094 243.0625 205.109375 243.0625 "/><path style=" stroke:none;fill-rule:nonzero;fill:rgb(91.369629%,76.078796%,38.038635%);fill-opacity:1;" d="M 216.144531 200.433594 L 235.308594 218.304688 L 261.921875 198.988281 L 229.546875 159.222656 Z M 235.210938 221.207031 C 234.898438 221.207031 234.585938 221.09375 234.34375 220.863281 L 213.828125 201.734375 C 213.464844 201.398438 213.332031 200.886719 213.488281 200.417969 L 227.859375 156.230469 C 228 155.789062 228.375 155.460938 228.828125 155.375 C 229.289062 155.285156 229.753906 155.460938 230.046875 155.820312 L 264.734375 198.429688 C 264.953125 198.695312 265.050781 199.046875 265.007812 199.390625 C 264.964844 199.734375 264.773438 200.046875 264.496094 200.25 L 235.953125 220.964844 C 235.730469 221.128906 235.472656 221.207031 235.210938 221.207031 "/><path style=" stroke:none;fill-rule:nonzero;fill:rgb(91.369629%,76.078796%,38.038635%);fill-opacity:1;" d="M 216.144531 592.277344 L 229.546875 633.488281 L 261.921875 593.726562 L 235.308594 574.414062 Z M 229.0625 637.363281 C 228.988281 637.363281 228.90625 637.351562 228.828125 637.335938 C 228.375 637.253906 228 636.925781 227.859375 636.484375 L 213.488281 592.296875 C 213.332031 591.828125 213.464844 591.3125 213.828125 590.976562 L 234.34375 571.847656 C 234.789062 571.4375 235.46875 571.390625 235.953125 571.75 L 264.496094 592.46875 C 264.773438 592.667969 264.964844 592.980469 265.007812 593.324219 C 265.050781 593.667969 264.953125 594.015625 264.734375 594.285156 L 230.046875 636.890625 C 229.804688 637.195312 229.441406 637.363281 229.0625 637.363281 "/><path style=" stroke:none;fill-rule:nonzero;fill:rgb(91.369629%,76.078796%,38.038635%);fill-opacity:1;" d="M 230.480469 156.355469 L 263.976562 197.496094 L 290.171875 178.488281 L 263.367188 134.464844 L 237.601562 134.464844 Z M 263.75 200.492188 C 263.382812 200.492188 263.019531 200.335938 262.765625 200.027344 L 228.082031 157.417969 C 227.808594 157.085938 227.722656 156.636719 227.859375 156.230469 L 235.472656 132.804688 C 235.644531 132.28125 236.128906 131.929688 236.679688 131.929688 L 264.082031 131.929688 C 264.523438 131.929688 264.933594 132.160156 265.160156 132.539062 L 292.945312 178.171875 C 293.285156 178.734375 293.136719 179.46875 292.609375 179.851562 L 264.496094 200.25 C 264.269531 200.414062 264.011719 200.492188 263.75 200.492188 "/><path style=" stroke:none;fill-rule:nonzero;fill:rgb(91.369629%,76.078796%,38.038635%);fill-opacity:1;" d="M 237.601562 658.253906 L 263.367188 658.253906 L 290.171875 614.222656 L 263.976562 595.214844 L 230.480469 636.359375 Z M 264.082031 660.785156 L 236.679688 660.785156 C 236.128906 660.785156 235.644531 660.429688 235.472656 659.910156 L 227.859375 636.484375 C 227.722656 636.074219 227.808594 635.625 228.082031 635.292969 L 262.765625 592.6875 C 263.191406 592.164062 263.953125 592.070312 264.496094 592.460938 L 292.609375 612.859375 C 293.136719 613.25 293.285156 613.980469 292.945312 614.539062 L 265.160156 660.175781 C 264.933594 660.554688 264.523438 660.785156 264.082031 660.785156 "/><path style=" stroke:none;fill-rule:nonzero;fill:rgb(91.369629%,76.078796%,38.038635%);fill-opacity:1;" d="M 266.335938 134.464844 L 292.226562 177 L 319.050781 157.523438 L 309.027344 134.464844 Z M 291.859375 180.09375 C 291.777344 180.09375 291.695312 180.085938 291.613281 180.070312 C 291.265625 180 290.964844 179.789062 290.777344 179.488281 L 262.996094 133.855469 C 262.761719 133.464844 262.75 132.976562 262.976562 132.574219 C 263.199219 132.179688 263.621094 131.929688 264.082031 131.929688 L 309.855469 131.929688 C 310.359375 131.929688 310.820312 132.226562 311.019531 132.691406 L 321.78125 157.441406 C 322.015625 157.992188 321.839844 158.625 321.359375 158.976562 L 292.609375 179.851562 C 292.390625 180.011719 292.128906 180.09375 291.859375 180.09375 "/><path style=" stroke:none;fill-rule:nonzero;fill:rgb(91.369629%,76.078796%,38.038635%);fill-opacity:1;" d="M 266.335938 658.253906 L 309.027344 658.253906 L 319.050781 635.191406 L 292.226562 615.71875 Z M 309.855469 660.785156 L 264.082031 660.785156 C 263.621094 660.785156 263.199219 660.539062 262.976562 660.136719 C 262.75 659.738281 262.761719 659.253906 262.996094 658.863281 L 290.777344 613.226562 C 290.964844 612.921875 291.265625 612.714844 291.613281 612.640625 C 291.960938 612.578125 292.320312 612.652344 292.609375 612.859375 L 321.359375 633.742188 C 321.839844 634.09375 322.015625 634.726562 321.78125 635.269531 L 311.019531 660.023438 C 310.820312 660.484375 310.359375 660.785156 309.855469 660.785156 "/><path style=" stroke:none;fill-rule:nonzero;fill:rgb(91.369629%,76.078796%,38.038635%);fill-opacity:1;" d="M 311.792969 134.464844 L 321.152344 156 L 349.734375 135.253906 L 349.511719 134.464844 Z M 320.617188 159.21875 C 320.503906 159.21875 320.390625 159.199219 320.28125 159.167969 C 319.910156 159.070312 319.609375 158.808594 319.453125 158.453125 L 308.695312 133.703125 C 308.523438 133.3125 308.5625 132.855469 308.796875 132.5 C 309.035156 132.144531 309.429688 131.929688 309.855469 131.929688 L 350.476562 131.929688 C 351.046875 131.929688 351.546875 132.3125 351.699219 132.859375 L 352.40625 135.429688 C 352.550781 135.9375 352.355469 136.480469 351.929688 136.792969 L 321.359375 158.976562 C 321.144531 159.132812 320.878906 159.21875 320.617188 159.21875 "/><path style=" stroke:none;fill-rule:nonzero;fill:rgb(91.369629%,76.078796%,38.038635%);fill-opacity:1;" d="M 311.792969 658.253906 L 349.511719 658.253906 L 349.734375 657.457031 L 321.152344 636.71875 Z M 350.476562 660.785156 L 309.855469 660.785156 C 309.429688 660.785156 309.035156 660.566406 308.796875 660.210938 C 308.5625 659.855469 308.523438 659.40625 308.695312 659.015625 L 319.453125 634.261719 C 319.609375 633.910156 319.910156 633.640625 320.28125 633.542969 C 320.652344 633.445312 321.054688 633.511719 321.359375 633.742188 L 351.929688 655.921875 C 352.355469 656.230469 352.550781 656.773438 352.40625 657.285156 L 351.699219 659.855469 C 351.546875 660.40625 351.046875 660.785156 350.476562 660.785156 "/><path style=" stroke:none;fill-rule:nonzero;fill:rgb(91.369629%,76.078796%,38.038635%);fill-opacity:1;" d="M 354.722656 660.785156 L 350.476562 660.785156 C 350.078125 660.785156 349.707031 660.597656 349.46875 660.285156 C 349.226562 659.96875 349.148438 659.5625 349.253906 659.183594 L 349.964844 656.609375 C 350.074219 656.210938 350.375 655.890625 350.769531 655.75 C 351.160156 655.617188 351.59375 655.679688 351.929688 655.921875 L 355.472656 658.496094 C 355.910156 658.816406 356.09375 659.386719 355.925781 659.910156 C 355.757812 660.429688 355.273438 660.785156 354.722656 660.785156 "/><path style=" stroke:none;fill-rule:nonzero;fill:rgb(91.369629%,76.078796%,38.038635%);fill-opacity:1;" d="M 351.183594 137.03125 C 351.046875 137.03125 350.90625 137.011719 350.769531 136.960938 C 350.375 136.824219 350.074219 136.5 349.964844 136.101562 L 349.253906 133.535156 C 349.148438 133.152344 349.226562 132.742188 349.46875 132.429688 C 349.707031 132.113281 350.078125 131.929688 350.476562 131.929688 L 354.722656 131.929688 C 355.273438 131.929688 355.757812 132.28125 355.925781 132.804688 C 356.09375 133.324219 355.910156 133.898438 355.472656 134.222656 L 351.929688 136.789062 C 351.714844 136.953125 351.449219 137.03125 351.183594 137.03125 "/><path style=" stroke:none;fill-rule:nonzero;fill:rgb(91.369629%,76.078796%,38.038635%);fill-opacity:1;" d="M 358.625 131.929688 L 386.617188 131.929688 L 384.082031 113.457031 Z M 388.066406 134.464844 L 354.722656 134.464844 C 354.171875 134.464844 353.6875 134.105469 353.515625 133.589844 C 353.347656 133.0625 353.535156 132.496094 353.976562 132.171875 L 384.304688 110.164062 C 384.664062 109.902344 385.136719 109.847656 385.546875 110.027344 C 385.957031 110.199219 386.242188 110.578125 386.304688 111.019531 L 389.324219 133.023438 C 389.371094 133.386719 389.265625 133.75 389.019531 134.027344 C 388.777344 134.304688 388.433594 134.464844 388.066406 134.464844 "/><path style=" stroke:none;fill-rule:nonzero;fill:rgb(91.369629%,76.078796%,38.038635%);fill-opacity:1;" d="M 358.625 660.785156 L 384.082031 679.257812 L 386.617188 660.785156 Z M 385.050781 682.789062 C 384.789062 682.789062 384.527344 682.707031 384.304688 682.546875 L 353.976562 660.542969 C 353.535156 660.222656 353.347656 659.648438 353.515625 659.128906 C 353.6875 658.605469 354.171875 658.253906 354.722656 658.253906 L 388.066406 658.253906 C 388.433594 658.253906 388.777344 658.410156 389.019531 658.683594 C 389.265625 658.960938 389.371094 659.328125 389.324219 659.6875 L 386.304688 681.699219 C 386.242188 682.136719 385.957031 682.511719 385.546875 682.6875 C 385.386719 682.753906 385.21875 682.789062 385.050781 682.789062 "/><path style=" stroke:none;fill-rule:nonzero;fill:rgb(91.369629%,76.078796%,38.038635%);fill-opacity:1;" d="M 205.109375 241.796875 L 205.121094 241.796875 Z M 355.132812 658.253906 L 493.414062 658.253906 L 647.265625 546.578125 L 696.121094 396.359375 L 647.265625 246.132812 L 493.414062 134.464844 L 355.132812 134.464844 L 205.851562 242.820312 L 201.28125 246.132812 L 152.429688 396.359375 L 201.28125 546.578125 Z M 493.828125 660.785156 L 354.722656 660.785156 C 354.457031 660.785156 354.195312 660.695312 353.976562 660.542969 L 199.460938 548.382812 C 199.242188 548.226562 199.085938 548.007812 199 547.75 L 149.890625 396.75 C 149.804688 396.492188 149.804688 396.21875 149.890625 395.96875 L 199 244.960938 C 199.085938 244.710938 199.242188 244.488281 199.460938 244.328125 L 353.976562 132.171875 C 354.195312 132.015625 354.457031 131.929688 354.722656 131.929688 L 493.828125 131.929688 C 494.09375 131.929688 494.355469 132.015625 494.574219 132.171875 L 649.089844 244.328125 C 649.304688 244.488281 649.46875 244.710938 649.546875 244.960938 L 698.660156 395.96875 C 698.742188 396.21875 698.742188 396.492188 698.660156 396.75 L 649.546875 547.75 C 649.46875 548.007812 649.304688 548.226562 649.089844 548.382812 L 494.574219 660.542969 C 494.355469 660.695312 494.097656 660.785156 493.828125 660.785156 "/><path style=" stroke:none;fill-rule:nonzero;fill:rgb(91.369629%,76.078796%,38.038635%);fill-opacity:1;" d="M 389.175781 131.929688 L 423.007812 131.929688 L 423.007812 85.203125 L 386.40625 111.765625 Z M 424.273438 134.464844 L 388.066406 134.464844 C 387.433594 134.464844 386.898438 133.992188 386.8125 133.371094 L 383.792969 111.359375 C 383.730469 110.902344 383.925781 110.441406 384.304688 110.164062 L 423.527344 81.691406 C 423.917969 81.40625 424.421875 81.367188 424.847656 81.585938 C 425.273438 81.804688 425.542969 82.238281 425.542969 82.714844 L 425.542969 133.199219 C 425.542969 133.894531 424.972656 134.464844 424.273438 134.464844 "/><g clip-rule="nonzero" clip-path="url(#clip3)"><path style=" stroke:none;fill-rule:nonzero;fill:rgb(91.369629%,76.078796%,38.038635%);fill-opacity:1;" d="M 386.40625 680.945312 L 423.007812 707.515625 L 423.007812 660.785156 L 389.175781 660.785156 Z M 424.273438 711.269531 C 424.011719 711.269531 423.75 711.183594 423.527344 711.023438 L 384.304688 682.546875 C 383.925781 682.277344 383.730469 681.816406 383.792969 681.351562 L 386.8125 659.347656 C 386.898438 658.71875 387.433594 658.253906 388.066406 658.253906 L 424.273438 658.253906 C 424.972656 658.253906 425.542969 658.816406 425.542969 659.519531 L 425.542969 710.003906 C 425.542969 710.476562 425.273438 710.914062 424.847656 711.125 C 424.671875 711.21875 424.472656 711.269531 424.273438 711.269531 "/></g><path style=" stroke:none;fill-rule:nonzero;fill:rgb(91.369629%,76.078796%,38.038635%);fill-opacity:1;" d="M 425.542969 131.929688 L 459.378906 131.929688 L 462.140625 111.765625 L 425.542969 85.203125 Z M 460.484375 134.464844 L 424.273438 134.464844 C 423.578125 134.464844 423.007812 133.894531 423.007812 133.199219 L 423.007812 82.714844 C 423.007812 82.238281 423.273438 81.804688 423.699219 81.585938 C 424.125 81.367188 424.632812 81.40625 425.023438 81.691406 L 464.246094 110.164062 C 464.621094 110.441406 464.820312 110.902344 464.757812 111.359375 L 461.742188 133.371094 C 461.652344 133.992188 461.117188 134.464844 460.484375 134.464844 "/><g clip-rule="nonzero" clip-path="url(#clip4)"><path style=" stroke:none;fill-rule:nonzero;fill:rgb(91.369629%,76.078796%,38.038635%);fill-opacity:1;" d="M 425.542969 660.785156 L 425.542969 707.515625 L 462.140625 680.945312 L 459.378906 660.785156 Z M 424.273438 711.269531 C 424.078125 711.269531 423.882812 711.21875 423.699219 711.125 C 423.273438 710.914062 423.007812 710.476562 423.007812 710.003906 L 423.007812 659.519531 C 423.007812 658.816406 423.578125 658.253906 424.273438 658.253906 L 460.484375 658.253906 C 461.117188 658.253906 461.652344 658.71875 461.742188 659.347656 L 464.757812 681.351562 C 464.820312 681.816406 464.621094 682.277344 464.246094 682.546875 L 425.023438 711.023438 C 424.800781 711.183594 424.539062 711.269531 424.273438 711.269531 "/></g><path style=" stroke:none;fill-rule:nonzero;fill:rgb(91.369629%,76.078796%,38.038635%);fill-opacity:1;" d="M 461.9375 660.785156 L 464.46875 679.257812 L 489.925781 660.785156 Z M 463.5 682.789062 C 463.332031 682.789062 463.160156 682.753906 463.003906 682.6875 C 462.59375 682.511719 462.304688 682.136719 462.246094 681.699219 L 459.226562 659.6875 C 459.175781 659.328125 459.289062 658.960938 459.527344 658.683594 C 459.769531 658.410156 460.117188 658.253906 460.484375 658.253906 L 493.828125 658.253906 C 494.375 658.253906 494.859375 658.605469 495.035156 659.128906 C 495.203125 659.648438 495.019531 660.222656 494.574219 660.542969 L 464.246094 682.546875 C 464.023438 682.707031 463.761719 682.789062 463.5 682.789062 "/><path style=" stroke:none;fill-rule:nonzero;fill:rgb(91.369629%,76.078796%,38.038635%);fill-opacity:1;" d="M 461.9375 131.929688 L 489.925781 131.929688 L 464.46875 113.457031 Z M 493.828125 134.464844 L 460.484375 134.464844 C 460.117188 134.464844 459.769531 134.304688 459.527344 134.027344 C 459.289062 133.75 459.175781 133.386719 459.226562 133.023438 L 462.246094 111.019531 C 462.304688 110.578125 462.59375 110.199219 463.003906 110.027344 C 463.414062 109.847656 463.886719 109.902344 464.246094 110.164062 L 494.574219 132.171875 C 495.019531 132.496094 495.203125 133.0625 495.035156 133.589844 C 494.859375 134.105469 494.375 134.464844 493.828125 134.464844 "/><path style=" stroke:none;fill-rule:nonzero;fill:rgb(91.369629%,76.078796%,38.038635%);fill-opacity:1;" d="M 497.367188 137.03125 C 497.097656 137.03125 496.835938 136.953125 496.617188 136.789062 L 493.082031 134.222656 C 492.636719 133.898438 492.453125 133.324219 492.625 132.804688 C 492.792969 132.28125 493.277344 131.929688 493.828125 131.929688 L 498.074219 131.929688 C 498.46875 131.929688 498.839844 132.113281 499.082031 132.429688 C 499.320312 132.742188 499.402344 133.152344 499.296875 133.535156 L 498.582031 136.101562 C 498.476562 136.5 498.171875 136.824219 497.78125 136.960938 C 497.648438 137.011719 497.503906 137.03125 497.367188 137.03125 "/><path style=" stroke:none;fill-rule:nonzero;fill:rgb(91.369629%,76.078796%,38.038635%);fill-opacity:1;" d="M 498.074219 660.785156 L 493.828125 660.785156 C 493.277344 660.785156 492.792969 660.429688 492.625 659.910156 C 492.453125 659.386719 492.636719 658.816406 493.078125 658.496094 L 496.617188 655.921875 C 496.957031 655.679688 497.390625 655.617188 497.78125 655.75 C 498.171875 655.890625 498.476562 656.210938 498.582031 656.609375 L 499.296875 659.179688 C 499.402344 659.5625 499.320312 659.96875 499.082031 660.285156 C 498.839844 660.597656 498.46875 660.785156 498.074219 660.785156 "/><path style=" stroke:none;fill-rule:nonzero;fill:rgb(91.369629%,76.078796%,38.038635%);fill-opacity:1;" d="M 498.820312 135.253906 L 527.398438 156 L 536.761719 134.464844 L 499.039062 134.464844 Z M 527.929688 159.21875 C 527.667969 159.21875 527.40625 159.132812 527.1875 158.976562 L 496.617188 136.792969 C 496.191406 136.480469 496 135.9375 496.144531 135.429688 L 496.851562 132.859375 C 497.003906 132.3125 497.503906 131.929688 498.074219 131.929688 L 538.695312 131.929688 C 539.121094 131.929688 539.519531 132.144531 539.753906 132.5 C 539.984375 132.855469 540.027344 133.3125 539.851562 133.703125 L 529.09375 158.453125 C 528.941406 158.808594 528.640625 159.070312 528.269531 159.167969 C 528.160156 159.199219 528.046875 159.21875 527.929688 159.21875 "/><path style=" stroke:none;fill-rule:nonzero;fill:rgb(91.369629%,76.078796%,38.038635%);fill-opacity:1;" d="M 499.039062 658.253906 L 536.761719 658.253906 L 527.398438 636.71875 L 498.820312 657.457031 Z M 538.695312 660.785156 L 498.074219 660.785156 C 497.503906 660.785156 497.003906 660.40625 496.851562 659.855469 L 496.144531 657.285156 C 496 656.773438 496.191406 656.230469 496.617188 655.921875 L 527.1875 633.742188 C 527.496094 633.511719 527.898438 633.445312 528.269531 633.542969 C 528.640625 633.640625 528.941406 633.910156 529.09375 634.261719 L 539.851562 659.015625 C 540.027344 659.40625 539.984375 659.855469 539.753906 660.210938 C 539.519531 660.566406 539.121094 660.785156 538.695312 660.785156 "/><path style=" stroke:none;fill-rule:nonzero;fill:rgb(91.369629%,76.078796%,38.038635%);fill-opacity:1;" d="M 539.527344 658.253906 L 582.214844 658.253906 L 556.324219 615.71875 L 529.5 635.191406 Z M 584.472656 660.785156 L 538.695312 660.785156 C 538.1875 660.785156 537.734375 660.484375 537.53125 660.023438 L 526.769531 635.269531 C 526.535156 634.726562 526.707031 634.09375 527.1875 633.742188 L 555.945312 612.859375 C 556.230469 612.652344 556.589844 612.578125 556.9375 612.640625 C 557.285156 612.714844 557.589844 612.921875 557.773438 613.226562 L 585.550781 658.863281 C 585.789062 659.253906 585.800781 659.738281 585.578125 660.136719 C 585.347656 660.539062 584.929688 660.785156 584.472656 660.785156 "/><path style=" stroke:none;fill-rule:nonzero;fill:rgb(91.369629%,76.078796%,38.038635%);fill-opacity:1;" d="M 529.5 157.523438 L 556.324219 177 L 582.214844 134.464844 L 539.527344 134.464844 Z M 556.691406 180.09375 C 556.421875 180.09375 556.164062 180.011719 555.945312 179.851562 L 527.1875 158.976562 C 526.707031 158.625 526.535156 157.992188 526.769531 157.441406 L 537.53125 132.691406 C 537.734375 132.226562 538.1875 131.929688 538.695312 131.929688 L 584.472656 131.929688 C 584.929688 131.929688 585.347656 132.179688 585.578125 132.574219 C 585.800781 132.976562 585.789062 133.464844 585.550781 133.855469 L 557.773438 179.488281 C 557.589844 179.789062 557.285156 180 556.9375 180.070312 C 556.859375 180.085938 556.773438 180.09375 556.691406 180.09375 "/><path style=" stroke:none;fill-rule:nonzero;fill:rgb(91.369629%,76.078796%,38.038635%);fill-opacity:1;" d="M 558.378906 178.488281 L 584.570312 197.496094 L 618.066406 156.355469 L 610.949219 134.464844 L 585.183594 134.464844 Z M 584.800781 200.492188 C 584.535156 200.492188 584.28125 200.414062 584.050781 200.25 L 555.945312 179.851562 C 555.414062 179.46875 555.265625 178.734375 555.605469 178.171875 L 583.386719 132.539062 C 583.617188 132.160156 584.027344 131.929688 584.472656 131.929688 L 611.871094 131.929688 C 612.417969 131.929688 612.902344 132.28125 613.078125 132.804688 L 620.691406 156.230469 C 620.824219 156.636719 620.742188 157.085938 620.46875 157.417969 L 585.785156 200.027344 C 585.53125 200.335938 585.164062 200.492188 584.800781 200.492188 "/><path style=" stroke:none;fill-rule:nonzero;fill:rgb(91.369629%,76.078796%,38.038635%);fill-opacity:1;" d="M 585.183594 658.253906 L 610.949219 658.253906 L 618.066406 636.359375 L 584.570312 595.214844 L 558.378906 614.222656 Z M 611.871094 660.785156 L 584.472656 660.785156 C 584.027344 660.785156 583.617188 660.554688 583.386719 660.175781 L 555.605469 614.539062 C 555.265625 613.980469 555.414062 613.25 555.945312 612.859375 L 584.050781 592.460938 C 584.601562 592.066406 585.359375 592.164062 585.785156 592.6875 L 620.46875 635.292969 C 620.742188 635.625 620.824219 636.074219 620.691406 636.484375 L 613.078125 659.910156 C 612.902344 660.429688 612.417969 660.785156 611.871094 660.785156 "/><path style=" stroke:none;fill-rule:nonzero;fill:rgb(91.369629%,76.078796%,38.038635%);fill-opacity:1;" d="M 586.625 198.988281 L 613.242188 218.304688 L 632.40625 200.433594 L 619.003906 159.222656 Z M 613.339844 221.207031 C 613.082031 221.207031 612.820312 221.128906 612.597656 220.964844 L 584.050781 200.25 C 583.773438 200.046875 583.585938 199.734375 583.542969 199.390625 C 583.496094 199.046875 583.597656 198.695312 583.820312 198.429688 L 618.503906 155.820312 C 618.796875 155.460938 619.253906 155.285156 619.722656 155.375 C 620.175781 155.460938 620.546875 155.789062 620.691406 156.230469 L 635.0625 200.417969 C 635.214844 200.886719 635.082031 201.398438 634.726562 201.734375 L 614.207031 220.863281 C 613.964844 221.09375 613.652344 221.207031 613.339844 221.207031 "/><path style=" stroke:none;fill-rule:nonzero;fill:rgb(91.369629%,76.078796%,38.038635%);fill-opacity:1;" d="M 586.625 593.726562 L 619.003906 633.488281 L 632.40625 592.277344 L 613.242188 574.414062 Z M 619.488281 637.363281 C 619.113281 637.363281 618.746094 637.195312 618.503906 636.890625 L 583.820312 594.285156 C 583.597656 594.015625 583.496094 593.667969 583.542969 593.324219 C 583.585938 592.980469 583.773438 592.667969 584.050781 592.46875 L 612.597656 571.75 C 613.085938 571.390625 613.761719 571.429688 614.207031 571.847656 L 634.726562 590.976562 C 635.082031 591.3125 635.214844 591.828125 635.0625 592.296875 L 620.691406 636.484375 C 620.546875 636.925781 620.175781 637.253906 619.722656 637.335938 C 619.640625 637.351562 619.5625 637.363281 619.488281 637.363281 "/><path style=" stroke:none;fill-rule:nonzero;fill:rgb(91.369629%,76.078796%,38.038635%);fill-opacity:1;" d="M 615.324219 572.894531 L 633.265625 589.621094 L 645 553.566406 L 643.449219 552.476562 Z M 633.859375 593.167969 C 633.542969 593.167969 633.230469 593.050781 632.992188 592.832031 L 612.472656 573.695312 C 612.195312 573.441406 612.050781 573.074219 612.078125 572.691406 C 612.097656 572.316406 612.289062 571.96875 612.597656 571.75 L 642.695312 549.898438 C 643.132812 549.574219 643.726562 549.570312 644.171875 549.886719 L 647.222656 552.035156 C 647.675781 552.355469 647.871094 552.933594 647.695312 553.460938 L 635.0625 592.296875 C 634.929688 592.710938 634.59375 593.019531 634.175781 593.128906 C 634.066406 593.160156 633.964844 593.167969 633.859375 593.167969 "/><path style=" stroke:none;fill-rule:nonzero;fill:rgb(91.369629%,76.078796%,38.038635%);fill-opacity:1;" d="M 615.324219 219.820312 L 643.449219 240.238281 L 645 239.144531 L 633.265625 203.089844 Z M 643.441406 243.0625 C 643.175781 243.0625 642.914062 242.976562 642.695312 242.820312 L 612.597656 220.964844 C 612.289062 220.742188 612.097656 220.394531 612.078125 220.019531 C 612.050781 219.644531 612.195312 219.273438 612.472656 219.015625 L 632.992188 199.882812 C 633.3125 199.585938 633.75 199.472656 634.175781 199.582031 C 634.59375 199.691406 634.929688 200.007812 635.0625 200.417969 L 647.695312 239.253906 C 647.871094 239.777344 647.675781 240.355469 647.222656 240.679688 L 644.171875 242.832031 C 643.949219 242.984375 643.695312 243.0625 643.441406 243.0625 "/><path style=" stroke:none;fill-rule:nonzero;fill:rgb(91.369629%,76.078796%,38.038635%);fill-opacity:1;" d="M 645.617188 550.90625 L 645.820312 551.042969 L 645.941406 550.667969 Z M 646.492188 554.339844 C 646.238281 554.339844 645.980469 554.257812 645.765625 554.105469 L 642.710938 551.953125 C 642.375 551.71875 642.175781 551.335938 642.171875 550.925781 C 642.171875 550.519531 642.367188 550.132812 642.695312 549.898438 L 647.597656 546.335938 C 648.042969 546.015625 648.644531 546.015625 649.089844 546.335938 C 649.535156 546.65625 649.722656 547.230469 649.546875 547.75 L 647.695312 553.457031 C 647.578125 553.84375 647.277344 554.144531 646.894531 554.273438 C 646.765625 554.320312 646.628906 554.339844 646.492188 554.339844 "/><path style=" stroke:none;fill-rule:nonzero;fill:rgb(91.369629%,76.078796%,38.038635%);fill-opacity:1;" d="M 645.617188 241.8125 L 645.941406 242.042969 L 645.820312 241.667969 Z M 648.34375 246.617188 C 648.082031 246.617188 647.820312 246.539062 647.597656 246.375 L 642.695312 242.820312 C 642.367188 242.582031 642.171875 242.195312 642.171875 241.785156 C 642.175781 241.375 642.375 240.996094 642.710938 240.761719 L 645.765625 238.605469 C 646.09375 238.378906 646.515625 238.3125 646.894531 238.441406 C 647.277344 238.570312 647.578125 238.867188 647.695312 239.253906 L 649.546875 244.960938 C 649.722656 245.484375 649.535156 246.054688 649.089844 246.375 C 648.867188 246.539062 648.609375 246.617188 648.34375 246.617188 "/><path style=" stroke:none;fill-rule:nonzero;fill:rgb(91.369629%,76.078796%,38.038635%);fill-opacity:1;" d="M 650.757812 248.671875 L 658.835938 273.5 L 674.085938 265.605469 Z M 658.089844 276.578125 C 657.925781 276.578125 657.765625 276.546875 657.609375 276.484375 C 657.265625 276.339844 657 276.058594 656.886719 275.699219 L 647.136719 245.742188 C 646.96875 245.222656 647.152344 244.648438 647.597656 244.328125 C 648.042969 244.007812 648.644531 244.007812 649.089844 244.328125 L 677.238281 264.765625 C 677.59375 265.023438 677.789062 265.449219 677.757812 265.882812 C 677.722656 266.324219 677.464844 266.710938 677.074219 266.910156 L 658.671875 276.433594 C 658.496094 276.527344 658.292969 276.578125 658.089844 276.578125 "/><path style=" stroke:none;fill-rule:nonzero;fill:rgb(91.369629%,76.078796%,38.038635%);fill-opacity:1;" d="M 658.835938 519.210938 L 650.757812 544.046875 L 674.085938 527.105469 Z M 648.34375 548.625 C 648.082031 548.625 647.820312 548.546875 647.597656 548.382812 C 647.152344 548.0625 646.96875 547.488281 647.136719 546.96875 L 656.886719 517.011719 C 657 516.660156 657.265625 516.371094 657.609375 516.234375 C 657.953125 516.089844 658.347656 516.105469 658.671875 516.277344 L 677.074219 525.800781 C 677.464844 526.003906 677.722656 526.394531 677.757812 526.828125 C 677.789062 527.269531 677.59375 527.6875 677.238281 527.953125 L 649.089844 548.382812 C 648.871094 548.546875 648.609375 548.625 648.34375 548.625 "/><path style=" stroke:none;fill-rule:nonzero;fill:rgb(91.369629%,76.078796%,38.038635%);fill-opacity:1;" d="M 693.21875 379.25 L 697.457031 392.261719 L 701.875 378.65625 Z M 697.457031 397.625 C 696.90625 397.625 696.421875 397.269531 696.25 396.75 L 690.308594 378.488281 C 690.1875 378.117188 690.242188 377.710938 690.460938 377.390625 C 690.679688 377.070312 691.035156 376.863281 691.425781 376.835938 L 703.578125 376 C 704 375.976562 704.40625 376.152344 704.664062 376.484375 C 704.925781 376.816406 705 377.253906 704.871094 377.652344 L 698.660156 396.75 C 698.492188 397.269531 698.003906 397.625 697.457031 397.625 "/><path style=" stroke:none;fill-rule:nonzero;fill:rgb(91.369629%,76.078796%,38.038635%);fill-opacity:1;" d="M 693.21875 413.464844 L 701.875 414.058594 L 697.457031 400.453125 Z M 703.664062 416.714844 C 703.640625 416.714844 703.605469 416.714844 703.578125 416.714844 L 691.425781 415.878906 C 691.035156 415.851562 690.679688 415.648438 690.460938 415.320312 C 690.242188 415 690.1875 414.59375 690.308594 414.222656 L 696.25 395.96875 C 696.421875 395.445312 696.90625 395.09375 697.457031 395.09375 C 698.003906 395.09375 698.492188 395.445312 698.660156 395.96875 L 704.871094 415.058594 C 705 415.460938 704.925781 415.898438 704.664062 416.230469 C 704.421875 416.539062 704.054688 416.714844 703.664062 416.714844 "/><path style=" stroke:none;fill-rule:nonzero;fill:rgb(91.369629%,76.078796%,38.038635%);fill-opacity:1;" d="M 659.628906 516.773438 L 676.382812 525.4375 L 711.757812 499.773438 L 669.984375 484.945312 Z M 676.496094 528.1875 C 676.292969 528.1875 676.09375 528.144531 675.910156 528.050781 L 657.507812 518.523438 C 656.960938 518.242188 656.691406 517.597656 656.886719 517.011719 L 667.976562 482.921875 C 668.078125 482.601562 668.316406 482.328125 668.625 482.179688 C 668.929688 482.027344 669.28125 482.011719 669.605469 482.121094 L 714.878906 498.191406 C 715.316406 498.351562 715.640625 498.742188 715.703125 499.207031 C 715.773438 499.671875 715.574219 500.136719 715.195312 500.414062 L 677.238281 527.953125 C 677.015625 528.109375 676.757812 528.1875 676.496094 528.1875 "/><path style=" stroke:none;fill-rule:nonzero;fill:rgb(91.369629%,76.078796%,38.038635%);fill-opacity:1;" d="M 659.628906 275.9375 L 669.984375 307.765625 L 711.757812 292.9375 L 676.382812 267.273438 Z M 669.179688 310.664062 C 668.988281 310.664062 668.796875 310.621094 668.625 310.53125 C 668.316406 310.382812 668.078125 310.117188 667.976562 309.789062 L 656.886719 275.699219 C 656.691406 275.113281 656.960938 274.46875 657.507812 274.1875 L 675.910156 264.667969 C 676.332031 264.445312 676.847656 264.484375 677.238281 264.765625 L 715.195312 292.304688 C 715.574219 292.582031 715.773438 293.042969 715.703125 293.511719 C 715.640625 293.976562 715.316406 294.363281 714.878906 294.519531 L 669.605469 310.589844 C 669.46875 310.640625 669.328125 310.664062 669.179688 310.664062 "/><path style=" stroke:none;fill-rule:nonzero;fill:rgb(91.369629%,76.078796%,38.038635%);fill-opacity:1;" d="M 681.820312 448.535156 L 715.359375 455.488281 L 702.722656 416.65625 L 692.410156 415.945312 Z M 717.238281 458.433594 C 717.15625 458.433594 717.066406 458.429688 716.980469 458.410156 L 679.925781 450.726562 C 679.570312 450.652344 679.265625 450.433594 679.085938 450.121094 C 678.902344 449.808594 678.867188 449.4375 678.976562 449.09375 L 690.308594 414.222656 C 690.484375 413.675781 691.019531 413.324219 691.597656 413.351562 L 703.753906 414.1875 C 704.269531 414.222656 704.714844 414.570312 704.871094 415.058594 L 718.441406 456.777344 C 718.585938 457.207031 718.488281 457.679688 718.183594 458.015625 C 717.941406 458.289062 717.59375 458.433594 717.238281 458.433594 "/><path style=" stroke:none;fill-rule:nonzero;fill:rgb(91.369629%,76.078796%,38.038635%);fill-opacity:1;" d="M 681.820312 344.183594 L 692.410156 376.765625 L 702.722656 376.058594 L 715.359375 337.222656 Z M 691.511719 379.363281 C 690.964844 379.363281 690.476562 379.011719 690.308594 378.488281 L 678.976562 343.621094 C 678.867188 343.277344 678.902344 342.902344 679.085938 342.589844 C 679.265625 342.285156 679.570312 342.0625 679.925781 341.988281 L 716.980469 334.300781 C 717.421875 334.210938 717.882812 334.359375 718.183594 334.695312 C 718.488281 335.03125 718.585938 335.503906 718.441406 335.933594 L 704.871094 377.652344 C 704.714844 378.148438 704.269531 378.488281 703.753906 378.527344 L 691.597656 379.359375 C 691.570312 379.363281 691.539062 379.363281 691.511719 379.363281 "/><g clip-rule="nonzero" clip-path="url(#clip5)"><path style=" stroke:none;fill-rule:nonzero;fill:rgb(91.369629%,76.078796%,38.038635%);fill-opacity:1;" d="M 670.765625 482.539062 L 714.242188 497.96875 L 726.316406 489.203125 L 716.261719 458.261719 L 681.035156 450.957031 Z M 714.453125 500.648438 C 714.308594 500.648438 714.164062 500.628906 714.027344 500.582031 L 668.757812 484.511719 C 668.109375 484.277344 667.761719 483.582031 667.976562 482.929688 L 678.976562 449.09375 C 679.171875 448.480469 679.800781 448.125 680.4375 448.246094 L 717.496094 455.933594 C 717.941406 456.027344 718.304688 456.347656 718.441406 456.777344 L 729.011719 489.292969 C 729.183594 489.816406 728.996094 490.386719 728.554688 490.707031 L 715.195312 500.414062 C 714.976562 500.570312 714.714844 500.648438 714.453125 500.648438 "/></g><g clip-rule="nonzero" clip-path="url(#clip6)"><path style=" stroke:none;fill-rule:nonzero;fill:rgb(91.369629%,76.078796%,38.038635%);fill-opacity:1;" d="M 670.765625 310.175781 L 681.035156 341.757812 L 716.261719 334.453125 L 726.316406 303.511719 L 714.242188 294.742188 Z M 680.179688 344.496094 C 679.636719 344.496094 679.148438 344.148438 678.976562 343.621094 L 667.976562 309.789062 C 667.761719 309.136719 668.109375 308.433594 668.757812 308.203125 L 714.027344 292.136719 C 714.421875 292 714.859375 292.058594 715.195312 292.304688 L 728.554688 302.003906 C 728.996094 302.324219 729.183594 302.898438 729.011719 303.417969 L 718.441406 335.933594 C 718.304688 336.363281 717.941406 336.691406 717.496094 336.785156 L 680.4375 344.46875 C 680.351562 344.484375 680.261719 344.496094 680.179688 344.496094 "/></g></g></svg>